<svg id="visual" viewBox="0 0 900 600" width="900" height="600" xmlns="http://www.w3.org/2000/svg" xmlns:xlink="http://www.w3.org/1999/xlink" version="1.1"><rect x="0" y="0" width="900" height="600" fill="#001220"></rect><path d="M0 368L21.5 368.7C43 369.3 86 370.7 128.8 377C171.7 383.3 214.3 394.7 257.2 404.5C300 414.3 343 422.7 385.8 414.3C428.7 406 471.3 381 514.2 379C557 377 600 398 642.8 407.2C685.7 416.3 728.3 413.7 771.2 414.5C814 415.3 857 419.7 878.5 421.8L900 424L900 601L878.5 601C857 601 814 601 771.2 601C728.3 601 685.7 601 642.8 601C600 601 557 601 514.2 601C471.3 601 428.7 601 385.8 601C343 601 300 601 257.2 601C214.3 601 171.7 601 128.8 601C86 601 43 601 21.5 601L0 601Z" fill="#009473"></path><path d="M0 471L21.5 462C43 453 86 435 128.8 435C171.7 435 214.3 453 257.2 450.8C300 448.7 343 426.3 385.8 423.2C428.7 420 471.3 436 514.2 439.5C557 443 600 434 642.8 426.7C685.7 419.3 728.3 413.7 771.2 421.8C814 430 857 452 878.5 463L900 474L900 601L878.5 601C857 601 814 601 771.2 601C728.3 601 685.7 601 642.8 601C600 601 557 601 514.2 601C471.3 601 428.7 601 385.8 601C343 601 300 601 257.2 601C214.3 601 171.7 601 128.8 601C86 601 43 601 21.5 601L0 601Z" fill="#0097ad"></path><path d="M0 460L21.5 456.3C43 452.7 86 445.3 128.8 448.5C171.7 451.7 214.3 465.3 257.2 466.3C300 467.3 343 455.7 385.8 459C428.7 462.3 471.3 480.7 514.2 483.8C557 487 600 475 642.8 464.8C685.7 454.7 728.3 446.3 771.2 450C814 453.7 857 469.3 878.5 477.2L900 485L900 601L878.5 601C857 601 814 601 771.2 601C728.3 601 685.7 601 642.8 601C600 601 557 601 514.2 601C471.3 601 428.7 601 385.8 601C343 601 300 601 257.2 601C214.3 601 171.7 601 128.8 601C86 601 43 601 21.5 601L0 601Z" fill="#0090d1"></path><path d="M0 516L21.5 516.3C43 516.7 86 517.3 128.8 514.8C171.7 512.3 214.3 506.7 257.2 508.3C300 510 343 519 385.8 517.3C428.7 515.7 471.3 503.3 514.2 498C557 492.7 600 494.3 642.8 499.2C685.7 504 728.3 512 771.2 513C814 514 857 508 878.5 505L900 502L900 601L878.5 601C857 601 814 601 771.2 601C728.3 601 685.7 601 642.8 601C600 601 557 601 514.2 601C471.3 601 428.7 601 385.8 601C343 601 300 601 257.2 601C214.3 601 171.7 601 128.8 601C86 601 43 601 21.5 601L0 601Z" fill="#0080ef"></path><path d="M0 551L21.5 552.8C43 554.7 86 558.3 128.8 557.2C171.7 556 214.3 550 257.2 551.5C300 553 343 562 385.8 560.8C428.7 559.7 471.3 548.3 514.2 542.3C557 536.3 600 535.7 642.8 534.3C685.7 533 728.3 531 771.2 535C814 539 857 549 878.5 554L900 559L900 601L878.5 601C857 601 814 601 771.2 601C728.3 601 685.7 601 642.8 601C600 601 557 601 514.2 601C471.3 601 428.7 601 385.8 601C343 601 300 601 257.2 601C214.3 601 171.7 601 128.8 601C86 601 43 601 21.5 601L0 601Z" fill="#0066ff"></path></svg>